<?xml version="1.0" encoding="utf-8"?>
<!-- Generator: Adobe Illustrator 19.0.0, SVG Export Plug-In . SVG Version: 6.00 Build 0)  -->
<svg version="1.1" id="Layer_1" xmlns="http://www.w3.org/2000/svg" xmlns:xlink="http://www.w3.org/1999/xlink" x="0px" y="0px"
	 viewBox="131 -131 512 512" style="enable-background:new 131 -131 512 512;" xml:space="preserve">
<g id="XMLID_2_">
	<path id="XMLID_13_" d="M387-131c-141,0-256,115-256,256c0,141.8,115,256,256,256s256-114.2,256-256C643-16,528-131,387-131z
		 M385.4-100.3l22.8,9.5l-11,26c-12.6,6.3-25.2,10.2-38.6,15l-7.9,14.2l-7.1,3.2l-10.2-19.7l7.1-7.9v-8l-19.7-14.2l6.3-5.5l32.3-9.5
		L385.4-100.3z M324-98.7l3.2,5.5c-6.3,2.4-11.8,4.7-18.1,7.1l-9.5,2.4l-3.9,3.9l-11-1.6l2.4-3.2l3.9-1.6l7-3.8l8.7-0.8l5.5-6.3
		L324-98.7z M272-74.3l4.7,7.9l3.2-6.3l7.9-1.6l0.8,4.7l16.5,1.6l3.9,9.5l10.2,3.9l-9.5,7.1c-5.5-3.9-11.8-7.1-17.3-11l-7.9-3.9
		c-3.9,2.4-7.1,5.5-11,7.9L268-44.3h-7.9l2.4-7.9l-9.5,9.5l-21.3,12.6l2.4,8.7l16.5,7.1l2.4,11l6.3-13.4l8.7-3.2l-0.8-6.3l10.2-16.5
		l11.8,6.3l-1.6,7.9l10.2-3.9l4.7,9.5l-1.6,6.3l6.3,2.4l5.5,4.7L310.3-4l-15,5.5h-10.2l-15,6.3h23.6l-7.9,11.8l-15,3.2L263.7,33
		l-12.6,4.7l-5.5,15l-16.5,14.2l-2.4,18.9L217.2,74l-13.4-2.4l-2.4,6.3h-11L179,87.2L176.7,99l0.8,11l9.5,4.7l6.3-2.4l6.3-8.7h6.3
		c-0.8,7.1-1.6,14.2-2.4,21.3l11-0.8v10.2l3.2,10.2c3.9,2.4,10.2,2.4,15,3.9V146l15-14.2l15,11l17.3-2.4l7.1,18.9l12.6,2.4l7.1,14.2
		c14.2,7.1,28.4,15,42.5,22.1l-1.6,14.2l-11,15l1.6,20.5l-6.3,15l-13.4,3.2l-6.3,8.7l2.4,6.3l-7.9,21.3l-11,4.7l-3.2,6.3l-6.3,7.1
		l2.4,4.7c0,0-2.4,1.6-3.9,2.4c-1.6,1.6-29.1-13.4-29.9-15.8c-0.8-2.4,0-2.4,0-2.4l6.3-23.6l-7.1-11l0.8-20.5l-6.3-9.5l-15-14.2
		L217.8,202l4.7-15l-2.4-3.9l6.3-7.9l6.3-18.9v-2.4l-5.5-2.4l-7.1,0.8l-11.8-8.7l-7.9-10.2l-18.1-4.7l-18.9-11
		c0,0-7.9-11.8-7.9-14.2c10.2-88.2,58.3-136.3,81.9-158.3c1.6-0.8,9.5-2.4,9.5-2.4l3.9-11l7.1,0.8l5.5,3.2l-0.8,11l1.6-2.4l7.1-6.3
		l-0.8-10.2L272-74.3L272-74.3z M494.9-67.2l11,3.9l20.5,3.9l-4.7,6.3h-11.8l11.8,11.8l8.7-10.2l2.4-4.7c0,0,33.1,29.9,52,63
		s28.4,71.7,28.4,79.6l-5.5,7.1c-3.9-4.7-8.7-8.7-13.4-12.6l-10.2,1.6l-7.9-11v13.4l7.1,5.5l6.3,6.3l6.3-8.7
		c1.6,3.2,3.2,7.1,4.7,10.2v10.2l-7.1,8.7l-15,10.2l-10.2,10.2c4.7,0,9.5-1.6,15-2.4v7.1l-11,26l-9.5,10.2l-7.9,16.5v28.4l2.4,11
		l-3.9,4.7l-8.7,6.3l-10.2,7.9l7.9,9.5l-11,10.2l2.4,6.3l-17.3,18.9h-11l-10.2,6.3h-5.5v-8.7l-2.4-15c-3.2-10.2-7.1-20.5-11-29.9
		c0-7.1,0-14.2,0.8-21.3l3.9-10.2l-6.3-11.8l0.8-15.8l-7.9-10.2l3.9-12.6l-7.1-7.9h-11l-3.9-3.9l-11,6.3l-5.5-4.7l-10.2,9.5
		c-7.1-8.7-15-17.3-22.8-25.2l-9.5-20.5l7.9-11.8l-3.9-5.5l9.5-22.1c7.9-9.5,16.5-18.9,24.4-28.4l15-3.9l16.5-2.4l11,3.2l15.8,15.8
		l5.5-6.3l8.7-2.4l15,5.5h11l7.9-7.1l3.2-4.7l-7.1-4.7L517,47c-3.9-4.7-7.1-10.2-11-15l-3.9,1.6L499.7,47l-7.9-9.5l-1.6-10.2
		l-9.5-6.3h-3.2l9.5,10.2l-3.2,8.7l-7.1,2.4l3.9-8.7l-7.1-4.7l-7.9-7.1L453,24.2l-3.2,3.9l-7.1,5.5l-3.9,11l-11,5.5l-4.7-5.5h-5.5
		V26.5l11-5.5h9.5l-2.4-7.1l-7.1-7.1l11.8-2.4l6.3-7.1l2.4-4.7l-6.3,6.3l-10.2,2.4l2.4-11.8v-8.7l-3.2-3.9v-5.5h4.7
		c2.4,5.5,5.5,10.2,7.1,15l6.3,6.3l3.2-3.9h9.5l-2.4-7.1l6.3-3.2v7.9l12.6,2.4l13.4-11l0.8-5.5l11-7.9c-3.9,0.8-7.9,0.8-11.8,2.4
		V-42l3.9-10.2h-3.9l-11,9.5l-2.4,4.7l2.4,6.3l-3.9,11.8l-6.3-3.9l-6.3-6.3l-8.7,6.3l-3.9-15.8l16.5-11v-5.5l10.2-6.3L494.9-67.2
		L494.9-67.2z M409.1-54.6l5.5,6.3l-11,7.1l-6.3-3.9l0.8-6.3l3.2,0.8L409.1-54.6z M294.1-52.2l8.7,3.9v7.1h-7.1l-7.9-6.3L294.1-52.2
		z M428-17.6l3.2,8.7L424-5l-2.4-11L428-17.6L428-17.6z M307.4,0.5l8.7,5.5l-6.3,7.9L307.4,0.5z"/>
</g>
</svg>
